<svg xmlns="http://www.w3.org/2000/svg" viewBox="0 0 32 32" width="32" height="32">
  <circle cx="16" cy="16" r="16" fill="#181717"/>
  <path fill="#fff" d="M16 6.5c-5.25 0-9.5 4.25-9.5 9.5 0 4.2 2.7 7.75 6.45 9-.1-.25-.2-.7-.2-1.35v-2.35c-.7.15-1.1-.15-1.3-.35-.2-.2-.45-.7-.65-.85-.2-.15-.5-.5 0-.5.45 0 .75.4 1.05.6.4.7 1.05.5 1.3.4.05-.3.2-.5.35-.6-2.2-.25-4.5-1.1-4.5-4.85 0-1.05.35-1.9 1-2.6-.1-.25-.45-1.25.1-2.6 0 0 .85-.25 2.75 1 .8-.25 1.65-.35 2.5-.35.85 0 1.7.1 2.5.35 1.9-1.25 2.75-1 2.75-1 .55 1.35.2 2.35.1 2.6.65.7 1 1.55 1 2.6 0 3.75-2.3 4.6-4.5 4.85.2.15.4.45.4.95v1.4c0 .15-.05.3-.2.35C22.8 23.75 25.5 20.2 25.5 16c0-5.25-4.25-9.5-9.5-9.5z"/>
</svg>
